<svg xmlns="http://www.w3.org/2000/svg" width="180" height="180"><path fill="#f58a1f" d="M0 0h180v180H0z"/><g transform="translate(6.479 -406.08) scale(3.17027)"><path d="M23.3 168.7c-1.5-.1-1.5-.1-4.1-.7 0 0 1.9 6.7 4 6.5 2-.3 4.3-6 4.3-6-.9 0-1.9.4-4.2.2zm4.4 0s2.3 4.8 4 4.3c1.7-.5 3.4-5.1 3.4-5.1zm7.5-.7s3.1 3.1 4.5 2.2c1.4-.9 2-4.8 2-4.8z" fill="#fff"/><path d="M27 169.8c-9.5.3-18.4-4.3-19.4-4.9 0 0-3.3-21.4 18.3-21.8 21.6-.3 19.3 19.9 19.3 19.9-.7.8-8.2 6.6-18.2 6.8z"/><ellipse cx="-6.003" cy="159.136" ry="9.7" rx="6.4" transform="rotate(-14.093)" fill="#fff"/><ellipse cx="-151.771" cy="40.306" ry="6.4" rx="9.7" transform="rotate(-82.16)" fill="#fff"/><path d="M18 139.3l4.3 2.2-1.3-6.1 2.6 5.1 2.5-2.5-.6 7.7-3.2-1z"/><ellipse cx="22.2" cy="155.8" ry="2.7" rx="1.4" fill="#231f20"/><path d="M31.5 155.8c0 1.5-.6 2.7-1.4 2.7-.8 0-1.4-1.2-1.4-2.7 0-1.5.6-2.7 1.4-2.7.7 0 1.4 1.2 1.4 2.7z" fill="#231f20"/></g></svg>