<?xml version="1.0" encoding="UTF-8"?>
<svg id="Layer_2" data-name="Layer 2" xmlns="http://www.w3.org/2000/svg" viewBox="0 0 358 273.03">
  <defs>
    <style>
      .cls-1 {
        fill: #fff;
      }

      .cls-2 {
        fill: #ab0634;
      }

      .cls-3 {
        fill: #4c443f;
      }

      .cls-4 {
        fill: #77b5e6;
      }

      .cls-5 {
        fill: #908c89;
      }
    </style>
  </defs>
  <g id="katman_1" data-name="katman 1">
    <g>
      <g>
        <path class="cls-1" d="m174.13,2.84l-.06,8.76h1.35c3.02,0,4.59.67,5.61,2.38.5.85.46,1.56.4,2.72-.02.42-.05.86-.05,1.29-.17,4.64-.3,8.65-.43,12.43-.28,8.38-.51,15.62-1.01,25.94-.06,1.35-.52,2.41-1.34,3.21.3.6,2.02,2.78,3.62,4.78h-1.04c-3.8,0-5.15-3.24-6.91-8.58l-.19-.58c-1.02-3.09-1.86-5.62-2.66-8.07-1.1-3.34-2.14-6.52-3.56-10.76-1.14-3.41-2.79-8.84-4.4-14.08-2.54-8.29-4.93-16.11-5.99-18.59l-.35-.82h-19.49l-1.66,4.16c-4.26,10.69-7.07,17.76-12.03,29.22-1.57,3.65-2.74,6.6-3.88,9.45-1.12,2.83-2.29,5.76-3.84,9.37l-.13.31c-1.29,2.99-2.36,5.28-3.73,6.81-.04,1.15-.26,10.41-.19,11.08l27.02.05-.08-1.42c-.09-1.47-.05-2.53-.02-3.75.02-.72.04-1.48.04-2.39v-1.15l-1.14-.18c-.72-.11-1.39-.14-2.02-.17-1.12-.05-2.01-.09-3.01-.63-1.2-.64-1.74-1.58-1.74-3.05,0-1.61.47-2.69,1.06-4.05.3-.7.64-1.48.94-2.41l.51-1.59c.49-1.56.87-2.75,1.53-4.27h19.2c1.32,4.74,2,7.27,3.29,13.07.12.54,0,.82-.13,1-.8,1.21-3.96,1.8-6.05,2.19l-.47.09.12,1.33h-.25s-.96.03-.96.03h0c0,.23,0,2.7.01,4.38,0,1.98,0,2.88,1.34,2.88h31.16v-1.35c-.02-1.59-.02-2.68-.01-3.93v-3.27c1.42,1.76,2.68,3.28,2.68,3.28,0,.64,0,1.23,0,1.87h17.92v-8.9h-2.14c-2.01.03-3.02.03-4.31-1.09-1.14-1-1.18-2.17-1.16-4.34v-.69c.17-4.54.3-8.48.41-12.18.28-8.38.52-15.61,1.03-25.92.13-3.36,3.5-4.79,6.58-4.71l1.37.04.04-9.24h-30.79s0,0,0,0Zm34.34.06l-.02,9.05h1.35c3.41,0,6.18,2.88,6.18,6.39l-.21,7.68c-.17,5.79-.3,10.65-.54,17.68l-.02.22c-.19,5.62-.32,9.01-.73,14.76-.07,1.1-.34,4.44-6.71,5.34l-1.16.16v9.03h28.62l.32-.18q.79-.46.71-7.26l-.02-1.23-1.5-.12c-1.37-.1-3.05-.23-4.33-1.26-2.02-1.63-2.01-2.24-1.99-4.07l1.5-38.57h.37l25.43,52.7h16.57l.06-1.29c.32-8.63.52-15.23.71-21.45.28-8.97.54-17.44,1.12-30.1.13-3.14,2.42-6.51,7.08-6.51h1.09s.24-1.05.24-1.05c.02-.07.43-8.67-.41-9.5l-.39-.38h-28.67l.09,1.42c.09,1.51.06,2.59.04,3.84-.02.69-.04,1.42-.04,2.28v1.15l1.14.17c.32.05.64.09.96.13,1.72.23,2.98.39,4.12,1.54,1.07,1.06,1.11,2.22,1.11,4.29-.09,3.3-.15,6.12-.21,8.78-.11,5.24-.19,9.76-.54,16.19,0,.14-.02.27-.04.4L240.65,2.9h-32.18Zm-201.45.03l-.04,10.61h1.34c3.7,0,7.53,2.21,7.53,5.9v11.43c0,11.81-.51,19.67-1.15,29.62-.23,3.55-.47,7.33-.71,11.62-.24,4.6-4.51,6.83-8.42,7.38l-1.41.07.27,1.38c.03.54.03,6.17-.02,7.09l-.46,1.59h36.85l.81-.07.35-.69c.34-.67.58-7.8-.05-8.76l-.45-.67-.57.03c-.8-.19-1.52-.3-2.16-.39-1.24-.18-2.22-.31-3.31-1.02-2.44-1.57-2.89-3.91-2.89-7.92l1.82-45.44c.12,0,.23,0,.35-.01.2,0,.38-.02.57-.02l15.88,64.97h19.06l20.98-63.99c.22.02.45.04.69.05-.19,5.01-.34,9.45-.49,13.64-.37,10.67-.69,19.89-1.32,33.04-.23,4.63-5.13,7.12-9.63,7.12h-1.34v1.34c0,1.06-.03,1.94-.06,2.79-.04,1.47-.09,2.85.03,4.76l.08,1.26h40.49l-.08-1.42c-.11-1.84-.07-3.15-.02-4.67h0c.03-.89.05-1.83.05-2.95v-1.17l-1.16-.15c-.72-.09-1.39-.15-2.04-.19-1.84-.13-3.17-.23-4.51-1.37-2.1-1.8-2.1-3.98-2.1-7.28v-.17c.22-5.98.39-11.16.55-16.04.36-10.91.67-20.34,1.32-33.78.24-5.29,6.62-6.75,9.35-7.13l1.16-.16V2.93h-41.75l-17.78,54.67L49.29,2.93H7.02s0,0,0,0Zm348.22,0l-69.32.02-.04,10.46,2.08.26c2.94.35,4.65.64,5.75,2.52.97,1.64.97,2.97.97,5.11-.21,5.7-.37,10.66-.54,15.33-.36,10.83-.67,20.19-1.31,33.5l-.04.99c-.09,2.52-.15,4.33-1.82,5.78-1.87,1.62-3.52,2.08-6.48,2.49l-.94.13-.19.93s-.09,7.74-.02,8.08l.24,1.04h69.77l1.2-32.65h-11.21s-.09,1.24-.09,1.24c-.28,3.89-2.08,14.62-7.01,17.61-2.89,1.81-7.27,2.19-10.42,2.19h-8.1c-1.99,0-3.79-.85-5.45-2.61-.62-.63-.58-1.28-.34-2.85.11-.68.24-1.46.24-2.25l.66-21.38h3.5s.02,0,.02,0c1.42,0,2.53.42,3.41,1.29,1.76,1.77,2.62,5.42,2.62,11.16v1.34h10.74l1.74-39.38h-9.93v1.34c0,4.73-.88,12.67-6.77,12.68h-4.8c.06-1.77.11-3.37.15-4.89.11-3.79.21-7.06.49-11.67.22-3.55,3.22-6.22,7.01-6.22h7.59c5.62,0,8.73.01,12.27,2.64,2.89,2.14,3.49,8.27,3.07,13.28l-.02,1.59h10.51l.77-29.09Zm-208.46,14.7l4.96,19.96h-13.23l8.27-19.96Z"/>
        <path d="m171.15,0l.04,14.3h4c2.67,0,3.01.58,3.31,1.07.07.12.09.23.03,1.21-.03.47-.05.96-.05,1.34-.17,4.63-.3,8.63-.42,12.4-.27,8.22-.51,15.36-.98,25.36-.09-.25-.16-.48-.25-.75l-.19-.58c-1.02-3.09-1.86-5.62-2.66-8.06-1.1-3.34-2.14-6.53-3.56-10.77-1.12-3.38-2.78-8.79-4.39-14.02-2.56-8.36-4.97-16.25-6.08-18.86l-1.04-2.45h-23.07l-2.33,5.85c-4.25,10.67-7.05,17.72-12,29.15-1.59,3.69-2.77,6.65-3.91,9.52-1.12,2.81-2.28,5.72-3.81,9.3l-.14.31c-.4.93-.75,1.7-1.09,2.42.03-.82.06-1.64.08-2.43.36-10.91.67-20.34,1.32-33.78.15-3.28,4.98-4.31,7.05-4.6l3.46-.49V.25h-46.37l-15.47,47.56L51.01.25H3.98l-.06,15.97h4.03c2.33,0,4.85,1.23,4.85,3.22v11.43c0,11.72-.51,19.55-1.15,29.46-.23,3.55-.47,7.34-.71,11.64-.2,3.84-5.13,4.73-6.12,4.87l-4.21.59.77,3.86c.02,1.11.01,5.04-.01,6.31l-1.37,4.7h40.37l2.56-.16,1.05-2.07c.68-1.33,1.07-9.5-.2-11.44l-1.29-1.97-1.74.1c-.76-.16-1.44-.26-2.01-.34-1.17-.17-1.66-.25-2.25-.63-1.14-.74-1.65-1.74-1.66-5.56l1.18-29.7,12.65,51.76h23.1l4.27-13.03v1.55c0,1.03-.03,1.89-.05,2.71-.05,1.53-.09,2.98.03,5l.23,3.78h45.85l-.25-4.25c-.1-1.72-.06-2.98-.02-4.43.03-.92.06-1.88.06-3.03v-3.52l-3.5-.46c-.77-.1-1.5-.16-2.19-.21-1.39-.1-2.02-.17-2.5-.42l28.33.05-.25-4.26c-.08-1.36-.05-2.35-.01-3.51.02-.75.04-1.53.04-2.47v-3.45l-3.41-.52c-.88-.14-1.67-.17-2.3-.2-1.04-.05-1.43-.08-1.87-.31-.27-.14-.32-.18-.32-.7,0-1.01.25-1.64.83-2.98.32-.75.7-1.59,1.04-2.64l.52-1.61c.28-.88.52-1.63.8-2.4h15.34c.91,3.32,1.54,5.75,2.5,10.04-1.04.39-2.87.73-3.85.92l-.48.09.37,3.97h.25s-.12-1.34-.12-1.34l.47-.09c2.09-.39,5.25-.98,6.05-2.19.12-.19.25-.47.13-1-1.29-5.8-1.98-8.33-3.29-13.07h-19.2c-.66,1.52-1.04,2.71-1.53,4.27l-.51,1.59c-.3.93-.64,1.71-.94,2.41-.59,1.36-1.06,2.44-1.06,4.05,0,1.47.54,2.41,1.74,3.05,1,.54,1.89.58,3.01.63.64.03,1.3.06,2.02.17l1.14.18v1.15c0,.91-.02,1.66-.04,2.39-.04,1.22-.07,2.28.02,3.75l.08,1.42-27.02-.05c-.07-.67-.09-1.53-.09-2.68v-.27c.06-1.58.11-3.1.16-4.57.04-1.21.08-2.4.12-3.55,1.37-1.53,2.44-3.82,3.73-6.81l.13-.31c1.56-3.61,2.72-6.54,3.84-9.37,1.13-2.85,2.3-5.8,3.88-9.45,4.96-11.46,7.78-18.53,12.03-29.22l1.65-4.16h19.49l.35.82c1.06,2.48,3.45,10.3,5.99,18.59,1.61,5.25,3.27,10.67,4.4,14.08,1.41,4.24,2.46,7.42,3.55,10.76.8,2.44,1.63,4.97,2.66,8.06l.19.58c1.76,5.34,3.11,8.58,6.91,8.58h1.34v3.64c0,1.25-.01,2.34,0,3.93v1.35s-31.16,0-31.16,0c-1.34,0-1.34-.9-1.34-2.88,0-1.68,0-4.15-.01-4.37l-2.68.04c0,.29,0,2.7.01,4.34,0,1.52,0,5.56,4.02,5.56h33.87l-.02-3.38h19.05v3.1h34.89l.13-13.82-4.03-.31c-1.11-.08-2.23-.16-2.85-.67-.75-.6-.96-.89-.97-.89-.02-.16-.02-.67-.02-1.04l.9-27.99,22.06,44.74h20.82l.15-3.87c.24-6.48.43-11.83.6-16.72.41-11.18.73-20.01,1.39-34.81.06-.98.49-4.2,4.27-4.2l6.05.23c2.79.33,3.35.51,3.77,1.22.58.97.6,1.64.6,3.65-.21,5.7-.37,10.67-.52,15.34-.37,10.82-.69,20.17-1.33,33.46l-.04,1.01c-.09,2.54-.19,3.25-.88,3.85-1.37,1.18-2.47,1.5-5.12,1.86l-2.83.39-.54,2.8c-.07.34-.19,8.36,0,9.2l.73,3.11h74.47l1.39-38h-16.47s-.28,3.73-.28,3.73c-.37,5.24-2.38,13.49-5.58,15.43l-.17.1c-1.84,1.15-5.02,1.78-9,1.78h-8.1c-.73,0-1.86-.16-3.26-1.51.02-.25.07-.58.13-.85.11-.74.24-1.67.24-2.59l.58-18.79h.92c.84-.05,1.27.25,1.54.51.67.69,1.86,2.81,1.86,9.26v4.02h15.97l1.97-44.73h-15.4v4.01c0,2.34-.28,10-4.09,10.01h-2.02c.02-.73.04-1.44.06-2.13.11-3.76.21-7.01.49-11.59.13-2.11,1.99-3.7,4.33-3.7h7.51c5.87,0,8.04.1,10.76,2.12,1.57,1.17,2.42,5.76,1.99,10.91l-.02,4.49h15.8l.92-34.45-107.4-.18.24,4.25c.09,1.4.07,2.38.04,3.62-.02.71-.04,1.46-.04,2.35v3.45l3.41.52c.36.05.69.1,1.03.14,1.67.22,2.1.32,2.57.78.26.26.34.59.34,2.31-.09,3.29-.17,6.09-.22,8.74-.04,2.05-.07,4-.13,5.99L242.3.09h-36.21s-34.94-.09-34.94-.09Zm2.98,2.84h30.78s-.02,9.24-.02,9.24l-1.37-.04c-3.07-.07-6.45,1.35-6.6,4.71-.49,10.31-.73,17.55-1.01,25.92-.11,3.7-.24,7.64-.41,12.18v.69c-.02,2.16.02,3.34,1.16,4.34,1.29,1.12,2.3,1.12,4.31,1.09h2.14s0,8.89,0,8.89h0s-17.91,0-17.91,0c0-.64,0-1.23,0-1.87v-6.33h-4.02c-.28,0-.52-.05-.76-.13-.66-.22-1.22-.79-1.82-1.97.82-.8,1.28-1.86,1.34-3.21.49-10.32.73-17.56,1.01-25.94.13-3.78.26-7.79.43-12.43,0-.43.02-.87.05-1.29.07-1.17.1-1.87-.4-2.72-1.02-1.71-2.6-2.38-5.61-2.38h-1.35l.06-8.76Zm34.34.06h32.18l19.11,40.24c.02-.12.04-.25.04-.39.36-6.43.43-10.96.54-16.2.06-2.66.11-5.48.21-8.78,0-2.07-.04-3.23-1.11-4.29-1.14-1.15-2.4-1.31-4.12-1.54-.32-.04-.64-.08-.96-.13l-1.14-.17v-1.15c0-.86.02-1.59.04-2.28.02-1.25.06-2.33-.04-3.84l-.09-1.42h28.67l.39.39c.84.82.43,9.41.41,9.49l-.24,1.05h-1.07s-.02,0-.02,0c-4.67,0-6.95,3.37-7.08,6.51-.58,12.67-.84,21.13-1.12,30.1-.19,6.22-.39,12.82-.71,21.45l-.06,1.29h-16.57l-25.43-52.7h-.37l-1.5,38.57c-.02,1.83-.04,2.44,1.99,4.07,1.27,1.03,2.96,1.16,4.33,1.26l1.52.12v1.23q.07,6.8-.71,7.26l-.32.18h-28.62v-9.03l1.16-.16c6.37-.9,6.63-4.24,6.71-5.34.41-5.75.54-9.14.73-14.76l.02-.22c.24-7.02.37-11.89.54-17.68l.21-7.68c0-3.51-2.77-6.39-6.18-6.39h-1.35l.02-9.05Zm-201.45.03h42.26l13.34,54.67L80.4,2.93h41.75s0,10.2,0,10.2l-1.15.16c-2.73.38-9.11,1.85-9.35,7.14h0c-.65,13.44-.96,22.86-1.32,33.78-.16,4.87-.33,10.05-.55,16.04v.17c0,3.3,0,5.48,2.1,7.28,1.33,1.14,2.66,1.23,4.51,1.37.64.05,1.32.1,2.04.19l1.16.15v1.17c0,1.12-.03,2.06-.05,2.95-.04,1.52-.08,2.83.02,4.67l.08,1.42h-40.49l-.07-1.26c-.11-1.91-.07-3.29-.03-4.76.03-.84.05-1.73.05-2.79v-1.34h1.34c4.5,0,9.4-2.5,9.63-7.12.63-13.14.95-22.36,1.32-33.04.15-4.19.3-8.63.49-13.64-.24,0-.47-.03-.69-.05l-20.98,63.99h-19.06l-15.88-64.97c-.19,0-.37.01-.57.02-.12,0-.23.01-.35.01l-1.82,45.44c0,4.01.45,6.36,2.89,7.93,1.1.71,2.07.84,3.31,1.02.64.09,1.36.2,2.16.39l.57-.03.45.67c.63.96.4,8.08.05,8.76l-.35.69-.81.07H3.95l.46-1.59c.05-.92.05-6.55.01-7.09l-.27-1.38,1.41-.07c3.91-.55,8.18-2.78,8.42-7.38.24-4.28.48-8.07.71-11.62.64-9.95,1.15-17.81,1.15-29.62v-11.43c0-3.69-3.83-5.9-7.53-5.9h-1.34l.04-10.61h0Zm348.22,0l-.77,29.09h-10.51l.02-1.59c.41-5.01-.19-11.13-3.07-13.27-3.54-2.63-6.65-2.64-12.27-2.64h-7.59c-3.79,0-6.78,2.67-7.01,6.22-.28,4.61-.37,7.89-.49,11.67-.04,1.52-.09,3.12-.15,4.9h4.8c5.88-.03,6.77-7.97,6.77-12.7v-1.34h9.93l-1.74,39.38h-10.74v-1.34c0-5.74-.86-9.38-2.62-11.16-.88-.87-1.99-1.29-3.41-1.29h-3.54s-.64,21.39-.64,21.39c0,.79-.13,1.57-.24,2.25-.24,1.57-.28,2.22.34,2.85,1.67,1.76,3.45,2.61,5.43,2.61h8.11c3.15,0,7.53-.38,10.42-2.19,4.93-2.99,6.73-13.72,7.01-17.61l.09-1.24h11.21l-1.2,32.65h-69.77l-.24-1.04c-.07-.34,0-8.04.02-8.08l.19-.93.94-.13c2.96-.41,4.61-.87,6.48-2.49,1.67-1.44,1.72-3.27,1.82-5.78l.04-.98c.64-13.31.96-22.67,1.31-33.5.17-4.67.34-9.63.54-15.33,0-2.14,0-3.47-.97-5.11-1.11-1.88-2.81-2.17-5.75-2.52l-2.08-.26.04-10.46h69.32s0-.01,0-.01Zm-150.74,11.85h6.97c1.26.56,2.14,1.84,2.14,3.28l-.21,7.68c-.15,5.78-.28,10.64-.54,17.65v.3c-.21,5.56-.34,8.91-.75,14.59-.06.74-.15,2.28-4.4,2.88l-2.14.3v-3.14h-4.83c-2.02.03-2.08-.04-2.53-.42-.21-.18-.26-.52-.24-2.3v-.62c.17-4.56.3-8.51.41-12.23.28-8.35.52-15.57,1.01-25.86.06-1.26,2.7-2.12,5.12-2.12h0Zm-57.72,2.85l-8.27,19.96h13.23l-4.96-19.96Zm-.64,8.53l2.17,8.74h-5.8l3.63-8.74Zm-57.89,15.9c-.33,9.51-.65,18.21-1.23,30.15-.15,2.98-3.69,4.58-6.95,4.58h-3.21l11.39-34.73Z"/>
        <path class="cls-4" d="m176.79,5.52l-.03,3.44c2.36.17,4.94.91,6.57,3.65.92,1.56.84,2.92.77,4.24-.02.37-.04.76-.04,1.19-.17,4.69-.3,8.7-.42,12.47-.28,8.39-.52,15.64-1.01,25.97-.1,2.09-.87,3.8-2.2,5.06.24.08.49.13.77.13h4.02v5.52s15.23,0,15.23,0v-3.53h0c-1.91.02-3.65-.13-5.53-1.76-2.12-1.86-2.1-4.16-2.08-6.38v-.71c.17-4.58.3-8.52.41-12.22.28-8.39.52-15.63,1.03-25.96.19-4.43,3.95-6.87,7.95-7.22l.02-3.88h-25.44Zm-37.33.04l-.99,2.47c-4.27,10.72-7.09,17.79-12.06,29.29-1.56,3.62-2.72,6.54-3.84,9.38-1.13,2.85-2.3,5.79-3.87,9.45l-.14.31c-1.58,3.66-3.2,7.41-6.31,9.3-.05,1.48-.1,2.99-.16,4.57v.08h0v.19l24.3.05c-.02-.93,0-1.73.03-2.56,0-.35.02-.72.03-1.1-.2-.01-.39-.01-.58-.02-1.29-.06-2.63-.12-4.16-.94-2.06-1.1-3.15-2.97-3.15-5.41,0-2.17.62-3.6,1.28-5.11.28-.66.59-1.36.86-2.18l.5-1.56c.58-1.83,1.04-3.28,2-5.36l.36-.78h22.96l.28.98c1.51,5.45,2.2,7.93,3.59,14.19.25,1.12.07,2.18-.51,3.07-1.32,2.01-4.47,2.72-7.19,3.23.02.81.02,1.88.03,3.3v.21h27.13c0-.94,0-1.74,0-2.61v-1.06c-4.96-.77-6.63-5.82-8.11-10.33l-.19-.57c-1.03-3.1-1.86-5.63-2.66-8.08-1.1-3.34-2.14-6.51-3.55-10.75-1.14-3.44-2.74-8.64-4.42-14.14-2.18-7.11-4.43-14.44-5.58-17.51h-15.88Zm71.67.02v3.79c4.25.67,7.53,4.45,7.53,9l-.21,7.71c-.17,5.8-.3,10.67-.54,17.7l-.02.22c-.19,5.65-.32,9.06-.73,14.85-.22,2.84-1.78,6.38-7.85,7.61v4.06h24.23c.02-1.05.02-2.49.04-3.52-1.46-.15-3.28-.51-4.85-1.76-2.89-2.33-3.02-3.88-2.98-6.2l.02-.74,1.57-40.46h4.65s25.41,52.69,25.41,52.69h12.33c.28-8,.49-14.24.66-20.15.28-8.98.54-17.45,1.12-30.14.19-4.19,3.15-8.41,8.47-9,0-1.43,0-4.08-.02-5.63h-24.01c.02.96,0,1.79-.04,2.65,0,.34,0,.68-.02,1.05,1.84.25,3.71.56,5.43,2.27,1.89,1.89,1.89,4.09,1.89,6.22-.09,3.33-.15,6.15-.21,8.8-.11,5.26-.21,9.8-.54,16.26-.06,1.61-.81,2.88-2.29,3.86l-1.29.86-19.96-42.01h-27.81Zm-201.45.02l-.02,5.33c4.56.51,8.86,3.61,8.86,8.5v11.43c0,11.89-.51,19.79-1.16,29.79-.23,3.55-.47,7.32-.71,11.59-.25,4.8-3.97,8.51-9.57,9.68.02,1.38.04,3.5.01,5h32.47c.07-1.36.07-3.77,0-5.02-.42-.08-.82-.14-1.22-.19-1.37-.2-2.8-.4-4.39-1.42-3.8-2.44-4.12-6.39-4.12-10.23l1.92-48.16,1.37.09c.55.04.99.01,1.41,0,.55-.03,1.12-.06,1.89,0l.95.09,15.85,64.84h15.01l21.01-64.08,1,.02c.41,0,.77.04,1.1.07.61.06,1.01.09,1.6-.04l1.7-.38-.07,1.74c-.21,5.63-.38,10.54-.54,15.14-.37,10.68-.69,19.91-1.32,33.07-.29,5.8-5.65,9.14-10.98,9.62,0,.56-.03,1.08-.04,1.59-.03,1.1-.06,2.08-.03,3.26h35.13c-.03-1.28,0-2.36.04-3.49.02-.53.03-1.07.04-1.67-.24-.02-.47-.04-.7-.05-2.08-.15-4.05-.3-6.05-2-3.04-2.6-3.04-5.86-3.04-9.31v-.22c.22-6.03.39-11.21.55-16.08.36-10.92.67-20.36,1.32-33.81.22-4.85,4.02-8.27,10.5-9.48v-5.22h-37.13l-18.67,57.41h-2.49L47.17,5.61H9.68Zm342.8,0h-63.9s-.02,5.44-.02,5.44c2.83.34,5.7.77,7.46,3.78,1.35,2.27,1.35,4.15,1.35,6.52-.21,5.75-.39,10.71-.54,15.38-.37,10.84-.69,20.21-1.31,33.53l-.04.95c-.11,2.83-.21,5.5-2.74,7.71-2.25,1.94-4.35,2.56-6.73,2.95,0,1.35-.02,3.6-.02,5.02h64.78l.99-27.29h-5.96c-.43,3.76-2.16,14.82-8.06,18.39-2.83,1.77-6.82,2.65-11.92,2.65h-8.1c-2.72,0-5.21-1.15-7.4-3.43-1.57-1.65-1.27-3.5-1.03-5.13.11-.62.21-1.25.21-1.88l.73-24.01,6.09-.02h.04c2.14,0,3.92.7,5.3,2.07,2.74,2.74,3.32,7.73,3.41,11.71h5.49l1.5-34.01h-4.46c-.3,8.92-3.69,14.01-9.43,14.02l-7.57.02.06-1.39c.07-2.36.15-4.37.21-6.28.09-3.81.19-7.1.49-11.75.3-4.98,4.46-8.74,9.67-8.74h7.51c5.87,0,9.69.01,13.94,3.17,4.12,3.06,4.42,10.29,4.24,14.35h5.13l.62-23.73h0Zm-207.41,10.09h3.63l6.1,24.22h-19.93l10.19-24.22Z"/>
        <path class="cls-3" d="m179.98,52.58c-3.18.2-5.68.84-8.09,1.46-2.82.73-5.49,1.41-9.12,1.41h-2.58c-8.48,0-13.47,3-20.37,7.15-.5.3-1,.6-1.52.91-1.14.67-2.06,1.25-2.96,1.8-1.3.81-2.53,1.57-4.21,2.5-.49.28-.9.59-1.28.89-.77.59-1.44,1.1-2.51,1.1-4.04,0-6.27,0-10.16-.57-3.13-.46-5.4-1.93-7.6-3.34-2.61-1.68-5.07-3.26-8.78-3.26-2.6,0-4.36.69-6.4,1.48-.96.37-1.95.76-3.12,1.11-6.63,1.96-11.26,4.34-15.3,10.69-.85,1.33-1.92,2.13-2.95,2.91-1.09.82-2.22,1.67-3.08,3.12-.41.71-.5,1.4-.59,2.07-.09.67-.18,1.29-.56,1.95l-.34.58c-1.65,2.8-2.84,4.82-2.84,8.26,0,1.81.63,3.05,1.29,4.37.53,1.05,1.07,2.13,1.29,3.55.32,1.96.38,3.58.43,5.15.05,1.57.11,3.2.43,5.18.11.7.05,1.32-.02,1.92-.1.9-.19,1.74.32,2.72.47.92,1.33,1.1,2.17,1.27.66.14,1.35.28,1.88.78,1.14,1.08,1.64,2.39,2.13,3.66.63,1.64,1.23,3.19,3.08,4.12,4.62,2.31,7.97,3.7,11.84,5.32,1.58.66,3.22,1.34,5.1,2.15,1.12.47,2.19.75,3.23,1.01,2.1.53,3.92,1,5.31,2.95,1.41,1.98,1.53,3.78,1.68,5.86.09,1.29.18,2.61.59,4.1l-2.29,16.22c.04.4.14.66.27.99l.11.26.17-.15c.32-.28.62-.55.91-.81,1.08-.99,1.94-1.78,3.4-2.24l-1.41,14.43c.03.42.12.67.23,1l.14.43.18-.18c.73-.73,1.38-1.3,2-1.86.59-.52,1.2-1.07,1.89-1.75.13.16.25.28.43.42.5,5.05,1.76,8.24,3.34,12.29.5,1.26,1.01,2.57,1.54,4.03.71,1.97,1.28,3.65,1.82,5.3,1.13,3.37,2.11,6.3,3.92,10.21l.11.24.16-.21c.62-.86,1.03-1.65,1.41-2.42.49-.97.95-1.89,1.83-2.83.7,2.21.96,4.07,1.2,5.88.26,1.89.52,3.86,1.29,6.2,1.41,4.24,3.52,6.69,5.97,9.5,1.13,1.31,2.31,2.66,3.52,4.31l.16.22.11-.24c.42-.92.64-1.71.87-2.47.19-.64.38-1.31.69-2.04l5.15,14.58.17-.3c.29-.49.49-.92.68-1.35.32-.69.59-1.31,1.17-1.93,7.23,9.09,10.69,14.86,15.36,25.65.59,1.35,1.14,2.53,1.68,3.65,1.34,2.81,2.49,5.23,3.19,8.94l.03.15.16-.02c1.03-.22,1.84-.64,2.61-1.03.99-.51,1.92-.99,3.24-.99.68,0,1.09.47,1.53.96.46.52.94,1.07,1.77,1.07,1.4,0,2.29-.64,3.23-1.31.46-.34.94-.67,1.51-.97l5.16,2.29,5.73-2.29c.37.24.66.58.94.88.52.56,1.01,1.11,1.95,1.11,1.12,0,1.91-.52,2.66-1.03s1.46-.97,2.49-.97c1.24,0,1.99.54,2.89,1.18.36.26.75.54,1.2.81l.15.09.07-.17c1.71-3.67,2.9-6.67,4.09-9.58,1.2-3.02,2.45-6.13,4.24-9.93,5.55-11.81,9.89-18.85,11.62-18.85.6,0,.99.34,1.41.69.45.36.9.75,1.61.75.24,0,.45-.07.6-.22.32-.34.28-.96.24-1.59-.02-.41-.04-.84.04-1.18.21-1.09.32-2.04.45-2.98.34-2.44.58-4.39,1.97-6.8.24.37.45.71.64,1.03.36.62.71,1.18,1.24,1.93l.15.19.62-1.03c1.65-2.74,2.72-4.52,4.39-7.5.28-.51.49-.99.69-1.46.49-1.09.9-2.02,2.01-2.72l.09.11c.6.73,1.03,1.26,1.86,1.82l.21.13,3.15-14.9c.73.56,1.12,1.24,1.56,1.95.37.62.75,1.27,1.39,1.89l.21.21,4.29-19.23,3.41,3.41.21-.45c.22-.51.41-.92.47-1.54.41-3.76.52-6.43.64-9.52.06-1.52.11-3.09.22-4.93.73.22,1.31.49,1.87.76.77.36,1.5.71,2.53.91l.22.04-1.72-14.11c.99,0,1.74.33,2.55.68.71.32,1.44.66,2.42.76l.21.02-2.89-21.36c3.65-3.64,7.12-5.45,10.79-7.36,2.36-1.23,4.78-2.49,7.48-4.33,1.67-1.12,2.55-2.23,3.56-3.51.49-.62.99-1.26,1.65-1.96l.19-.22c3.6-3.92,5.77-6.29,7.59-11.32.47-1.34.94-2.52,1.39-3.67,1.42-3.62,2.53-6.49,2.92-11.01.21-2.65.22-4.54.24-6.72,0-1.15,0-2.35.04-3.77,0-2.77-.96-4.63-1.99-6.61-.62-1.18-1.24-2.4-1.74-3.91-.24-.74-.39-1.44-.54-2.11-.34-1.64-.64-3.05-2.1-4.28-2.01-1.68-3.79-2.34-5.87-3.11-.97-.35-1.97-.72-3.05-1.22-1.07-.48-1.87-1.14-2.64-1.77-1.24-1-2.4-1.95-4.31-1.97-7.63-.17-11.94.18-19.1.75l-1.33.11c-2.74.2-4.78,1.27-6.77,2.3-1.87.99-3.84,2.01-6.41,2.28-2.21.22-3.47.28-5.58.28s-3.3-1.01-4.72-2.19c-.77-.62-1.54-1.26-2.51-1.81-.45-.25-.9-.48-1.33-.72-2.68-1.4-5.19-2.72-5.19-5.74v-.21l-.21.05c-1.89.51-3.3.13-4.93-.3-.75-.2-1.54-.42-2.45-.56-6.15-1.01-9.78-1.43-16.38-1.43h-3.45c-.28,0-.47-.12-.69-.26-.21-.13-.43-.27-.73-.31-4.01-.54-6.86-.6-10.16-.67-1.72-.04-3.51-.08-5.63-.19h-.02Z"/>
        <path d="m181.03,54.48c-3.54,0-6,.48-8.85,1.03-1.18.23-2.39.46-3.8.69-2.53.41-4.61.61-6.62.79-2.69.25-5.24.48-8.59,1.22-.96.2-1.87.26-2.75.31-1.83.11-3.55.21-5.08,1.74-.65.65-.96,1.37-1.26,2.08-.36.84-.7,1.64-1.59,2.2-1.99,1.25-3.58,2.07-5.26,2.94-1.12.58-2.27,1.17-3.63,1.94-.73.41-1.35.83-1.95,1.23-1.45.98-2.7,1.83-4.71,1.9-1.47-.07-2.72-.11-3.92-.14-2.32-.07-4.32-.13-7.12-.43-3.71-.4-5.91-1.79-8.71-3.55-.67-.42-1.37-.86-2.13-1.31-.41-.24-.71-.6-1-.94-.45-.54-.92-1.09-1.8-1.09-1.92,0-3.27.53-4.7,1.1-.81.32-1.65.65-2.66.92-1.24.33-2.35.5-3.43.68-2.02.32-3.93.63-6.08,1.92-2.22,1.32-3.46,2.84-4.78,4.45-.72.88-1.47,1.79-2.43,2.75-4.32,4.32-5.95,7.72-7.79,13.26-.23.7-.48,1.29-.73,1.87-.54,1.24-1,2.3-1,3.92,0,.87.6,1.3,1.18,1.72.45.32.92.66,1.13,1.22,1.37,3.43,1.25,6.29,1.12,9.31-.1,2.25-.19,4.58.31,7.3l.02.13h.13c2.43,0,3.41,2.19,4.45,4.5,1.03,2.3,2.11,4.68,4.74,4.68,3.5,0,5.73,1.36,8.3,2.94,1.21.74,2.47,1.52,3.97,2.22,1.03.48,1.93.88,2.78,1.27,1.9.86,3.54,1.6,5.82,2.74.44.22.87.4,1.29.57,1.38.58,2.57,1.07,3.23,2.51,1.94,4.09,2.28,6.94,2.28,11.41,0,1.96-.29,3.5-.57,4.99-.28,1.51-.58,3.07-.58,5.05v.16h.16c1.9,0,3.86,1.28,3.86,3.43,0,1.76-.22,3.16-.43,4.5-.21,1.35-.43,2.75-.43,4.54v.16h.16c3.79,0,4.36,3.56,5.03,7.69.28,1.74.57,3.53,1.14,5.11.78,2.19,1.55,3.97,2.29,5.67,1.18,2.72,2.29,5.27,3.16,8.94l.04.19.17-.07c.41-.15.74-.34,1.06-.52.55-.32,1.02-.6,1.76-.6,2.86,0,3.44,3.17,4,6.22.05.28.1.54.15.82.95,4.89,1.75,8.19,4.9,12.69.21.3.36.66.51,1.01.33.81.67,1.63,1.64,1.63.59,0,1-.3,1.39-.6.37-.28.71-.54,1.19-.54,4.02,0,4.83,4.29,5.62,8.43.17.88.34,1.78.54,2.64l.03.11h.13c2.95,0,4.15,2.14,5.54,4.61,1.11,1.95,2.25,3.99,4.43,5.13l.23.11v-1.48c-3.79-8.11-5.27-14.26-6.97-21.38-.73-3.05-1.49-6.22-2.5-9.86-.85-3.09-1.66-5.53-2.44-7.91-.79-2.36-1.6-4.8-2.44-7.87-.16-.62-.25-1.16-.34-1.69-.19-1.14-.34-2.14-1.12-3.26-1.23-1.79-2.93-2.64-4.56-3.46-1.84-.93-3.59-1.8-4.6-3.94v-.97c1.16-.11,2.14-.25,3.09-.39,1.73-.25,3.23-.46,5.37-.46h.16v-22.54c0-3.17,1.52-5.05,3.28-7.24.61-.76,1.24-1.54,1.86-2.43,3.64-5.25,6.5-7.62,11.73-11.44l.1-.07-.04-.12c-.64-1.65-1.77-3.83-4.17-3.83-1.31,0-2.28.45-3.22.88-.95.44-1.86.85-3.09.85-1.96,0-3.32-.43-4.89-.93-.86-.27-1.76-.56-2.82-.79-.9-.19-1.79-.17-2.65-.15-1.57.03-2.92.07-3.86-1.22-.37-.52-.33-1.04-.27-1.64.03-.36.07-.74.01-1.15-.18-1.38-.4-2.43-.63-3.55-.17-.84-.35-1.71-.52-2.77-.1-.68-.07-1.3-.04-1.9.05-1.03.1-2-.56-3.04-.36-.56-.88-.64-1.44-.72-.3-.04-.62-.08-.93-.21-.55-.22-1.01-.51-1.45-.78-.78-.49-1.51-.95-2.62-.95-1,0-1.25.92-1.48,1.8-.1.4-.21.81-.39,1.15-.3.58-.65,1.07-.99,1.54-.68.95-1.32,1.85-1.32,3.27,0,.35,0,.7,0,1.04-.03,3.07-.05,5.72,2.35,7.83.92.81,2.04,1.31,3.12,1.79,1.84.82,3.43,1.52,3.43,3.54,0,.6-.13,1.04-.27,1.51-.11.35-.22.7-.28,1.14-7.4-2.71-11.47-9.05-11.47-17.86,0-1.21.61-1.92,1.31-2.75.45-.52.91-1.06,1.26-1.77.4-.81.71-1.55,1.01-2.26.73-1.73,1.35-3.22,2.89-4.78,5.19,3.08,9.25,4.42,13.95,5.97,2.5.82,5.08,1.68,8.06,2.87,1.01.4,1.94.69,2.83.96,1.91.59,3.58,1.11,5.23,2.57.01,0,.03.01.04.01,0,0,0,0,0,.01.11.1.21.18.32.29-.26.18-.5.34-.74.49-.56.36-1.09.71-1.64,1.27l-.23.23,1.75.2.04-.03c.95-.56,2.23-1.26,3.16-1.77q1.48-.81,1.5-.91l.02-.1-.08-.06c-2.36-1.73-4.15-3.4-5.88-5.02-2.6-2.44-5.06-4.75-9.07-6.76-1.63-.81-2.99-.88-4.43-.94-.78-.04-1.58-.07-2.5-.22-1.67-.27-3.14-.49-4.56-.7-4.05-.59-7.3-1.06-11.7-2.44l3.29-.03c-.08-.09-.16-.19-.23-.31l-10.1-10.25.04-.1s.03-.07.04-.11l-.15-.15c.35-.88.68-1.65,1-2.36.16-.53.3-1.06.44-1.57.58-2.14,1.11-4.04,2.45-6.03.21-.68.52-1.28,1.2-1.78,2.1-1.57,3.91-1.69,6.65-1.69.59,0,.97.26,1.27.65.43.37.69.97.95,1.6.22.52.44,1.06.79,1.51l.15.2-.24.06c-.98.22-1.87.27-2.73.31-1.48.07-2.75.14-4.1,1.09-.84.6-1.02,1.41-1.22,2.36-.11.51-.22,1.04-.45,1.59-.23.54-.53.98-.81,1.4-.48.71-.9,1.32-.9,2.27,0,.56.16.99.41,1.35.52.6,1.31.99,2.13,1.39.66.32,1.34.65,1.92,1.11.19.15.36.31.52.47.61.52,1.08,1.12,1.53,1.69.32.41.62.79.94,1.12.52.42,1.14.72,1.97.77,3.9.22,7.03.03,10.06-.15,3.02-.18,6.14-.36,10.03-.14.9.04,1.53.42,2.08.96.56.43,1.02,1,1.48,1.6.31.4.63.8.99,1.18.27.24.54.49.81.74,1.27,1.05,2.61,2.06,3.9,3.03,2.2,1.65,4.48,3.36,6.47,5.34,12.12-6.3,21.93-6.68,28.03-5.9,5.96.77,9.63,2.78,10.36,3.2l3.49-5.07c-3.84-1.72-22.56-8.76-23.78-8.94l-.22.18v-.42l.08-.05s0,0,0,0c1.84-1.43,8.18-3.13,14.32-4.77,4.61-1.23,8.98-2.41,10.94-3.33-2.57-.07-13.85.07-22.51.37l-.06-.31,19.14-7.33c-2.81-1.06-16.32-5.18-19.45-5.75l-.78-.14,30.08-6.69c-4.01-1.42-28.08-9.96-30.59-11.49l-.57-.35,7.36.58c-.56-.3-1.01-.65-1.27-1.07l-.04-.08h-5.25Zm96.09,9.47l-14.28.65c-.56,0-1.27-.09-1.97-.18s-1.42-.18-2.01-.18c-2.21,0-3.41.94-4.67,1.93-1.07.83-2.17,1.68-3.95,2.02-.71.13-1.39.35-2.02.57-.99.33-1.93.64-2.98.64-.67,0-1.2-.14-1.76-.28-.54-.14-1.11-.29-1.82-.29-1.05,0-1.87.07-2.68.14-.79.07-1.61.14-2.64.14h-.58l.51.3c2.47,1.49,4.67,2.39,6.8,3.26,2.89,1.19,5.62,2.3,8.68,4.77,1.44,1.17,1.69,2.6,1.95,4.25.15.82.28,1.66.58,2.56.3.94.69,1.7,1.09,2.44.64,1.25,1.2,2.33,1.2,3.97,0,2-.73,3.36-1.5,4.81-.49.91-.97,1.86-1.37,3.03l-.07.26.26-.05c.77-.15,1.42-.3,2.08-.45,1.63-.37,3.04-.7,5.06-.7.07,0,.13.04.21.11.04.04.09.08.15.11l-4.83,10.26c1.37-.23,2.45-.64,3.6-1.07.84-.31,1.69-.63,2.68-.89l1.37-.47c.13.05.22.1.36.18l-5.96,11.7-.11.23h10.38l-.17.11h.24l-8.85,6.16.07.19c.51-.04,1.2-.1,2.02-.18l9.31-1.18c.17.02.28.09.43.16,0,0,.02,0,.02,0-1.63,1.64-2.92,2.99-4.16,4.3-1.27,1.35-2.59,2.74-4.29,4.44-.37.37-.77.69-1.16,1-1.05.84-2.04,1.63-2.04,3.14,0,.52.07.93.15,1.32.07.4.13.77.13,1.26v.36l.26-.24c4.72-4.27,8.56-6.58,13.02-9.26,2.38-1.42,4.83-2.89,7.63-4.79,6.67-4.53,8.9-9.67,11.54-17.01.45-1.26.9-2.37,1.33-3.43,1.12-2.74,2.1-5.11,2.4-8.67.3-3.37.3-5.44.3-8.57v-1.06c0-2.21-.79-3.64-1.69-5.29-.41-.73-.82-1.49-1.2-2.38-3.54-8.24-9.37-11.62-17.03-14.15h-.02Zm-23.89,39.34c-2.75,0-4.78.22-6.95.45-.26.03-.54.06-.82.09-.71.19-1.41.39-2.14.6-1.71.5-3.49,1.01-5.57,1.42-1.44.28-2.7.37-3.92.46-1.99.14-3.86.27-6.17,1.27-2.53,1.12-4.01,2.61-5.6,4.19-.97.98-1.99,1.99-3.32,3-.69.52-1.35.94-1.99,1.34-1.61,1.03-3.02,1.92-4.09,3.88l-.09.16.19.06c1.86.62,2.96,1.05,4.55,1.99l.04.02h.94c-.84-.56-1.69-1.18-2.66-1.82.32-.2.62-.37.92-.54-.02-.02-.04-.04-.06-.05.39-.22.92-.47,1.54-.76.21-.12.43-.23.66-.36.02.02.02.03.04.04,2.34-1.07,5.85-2.52,9.95-4.23,7.36-3.07,16.45-6.85,24.27-10.62.17-.14.36-.29.54-.44-.02-.01-.04-.03-.06-.05-.09-.07-.15-.11-.21-.11h0Zm-73.73,9.76l-17.21,5.93v.24l8.04,7.42-14.06.04c1.4,2.84,2.97,5.45,6.17,5.45,2.04,0,3.12-.86,5.17-.86,3.77,0,7.03,2.83,7.03,6.6v3.15c0,.25-.06.47-.16.67,4.13,4.46,8.22,7.21,8.22,9.03v6.89h-3.73c-12.67,0-19.19,7.14-28.12,16.07.54-2.98-.14-5.02,1.15-7.75,1.62-3.41,5.45-3.55,6.46-7.18l-7.61,4.59c2.37-3.59,4.2-5.52,7.46-8.32-.21,0-.32-.28-.57-.28-3.19,0-4.99,1.47-7.46,3.44,2.44-4.59,5.53-6.21,10.05-8.9-.22,0-.32-.28-.58-.28-3.62,0-5.78.72-8.9,2.58,3.12-3.12,5.74-4.16,9.76-6.03-1.58-.61-2.3-2.04-4.02-2.04-2.76,0-4.33,1.34-4.33,1.34.71-.71,1.58-1.64,2.53-2.65-2.69,1.37-6.57,5.28-8.26,7.99-1,1.61-2.58,2.37-2.58,4.3v24.97c-3.12.25-4.92,0-8.04,0,1.47,3.69,5.63,3.15,8.04,6.31,1.9,2.47,1.4,4.74,2.29,7.74,1.94,6.43,3.09,10.16,4.88,16.66,1.76,6.37,2.98,10.01,4.88,16.36.9,3.07.57,5.34,2.3,8.02,2.15,3.34,5.74,4.5,5.74,8.47,0,.71-.1,1.18-.28,1.87-1.54-1.95-1.9-3.67-4.01-4.89v1.14l10.33,28.13c1.58-.82,2.08-2.57,3.87-2.57s1.72,2.87,3.44,2.87c2.01,0,2.59-2.3,4.59-2.3,2.37,0,3.08,2.59,5.45,2.59,2.23,0,2.94-2.59,5.17-2.59,1.74,0,2.25,2.01,4.01,2.01,1.93,0,2.51-2.29,4.44-2.29,1.16,0,1.56,1.03,2.59,1.42,2.16-4.65,2.59-7.74,4.89-12.33,2.12-4.29,3.82-6.8,5.21-10.93-.06.09-.11.19-.17.28l-.36.58.43-5.23s.13-.54.34-1.35c-2.1,2.4-2.59,4.57-4.89,6.88-.24-2.68,1.54-4.29.86-6.88-1.57,2.01-2.16,3.45-3.73,5.45l-.28-2.3c1.5-3.77,3.97-5.06,6.3-8.32,1.95-2.72,1.33-5.13,2.3-8.32,1.91-6.28,3.19-9.73,4.87-16.06,1.71-6.43,2.81-10.04,4.89-16.36.99-3.05.82-5.79,2.77-8.32,2.4-3.17,6.09-2.34,7.55-6.04-3.13,0-4.91.25-8.04,0v-24.97c0-2.51-3.39-6.14-6.88-8.46.02.04.06.08.07.11-2.66-.68-3.86-1.79-6.63-1.79-1.72,0-2.72.54-4.31,1.14,3.92,1.79,6.47,2.73,9.48,5.74-3.37-1.33-5.53-2.36-9.18-2.01,4.52,2.69,7.61,4.3,10.04,8.89-2.62-2.08-4.67-3.48-8.04-3.15,3.15,2.72,5.23,4.34,7.18,8.03l-7.46-4.3c1.5,3.52,5.12,3.66,6.6,7.17,1.14,2.8.54,4.77,1.14,7.75-8.92-8.93-15.46-16.07-28.13-16.07h-3.73v-7.46c1.89-2.25,6.45-5.83,8.94-8.16-1.22-1.86-.07-4.58-.07-4.58,0,0-.3-5.38,7.03-5.82,2.02-.12,3.11.86,5.15.86,3.2,0,5.02-2.51,6.17-5.45h-15.48c-2.59-4.3-6.97-3.66-11.49-5.74.58-.25.94-.57,1.57-.57,4.16,0,6.43,2.91,10.48,2.01-2.62-2.62-4.76-3.44-8.04-5.16l2.02-.29c1.89.86,3.11,1.29,5.15,1.72v-.86c-1.14-1.15-2.08-2.33-3.11-3.24l-4.4-1.49h-11.14Z"/>
        <path class="cls-2" d="m185.98,165.17c-2.79,0-4.64.69-6.79,1.48-1.01.37-2.06.76-3.31,1.11l.04.31c.82,0,1.29.19,1.93.55l.11.07.09-.1c1.19-1.39,2.59-1.67,4.62-1.67,1.44,0,2.48.5,3.45,1.67l.11.11.11-.08c1.44-1.03,2.7-1.41,4.65-1.41.69,0,1.18.27,1.71.56.54.29,1.11.59,1.87.59.43,0,.73-.16,1.03-.31.22-.12.43-.23.71-.27v-.31c-1.76-.23-3.17-.7-4.52-1.15-1.8-.59-3.49-1.15-5.83-1.15h0Zm.37,10.45l-.11.37c-.07.3-.15.6-.22.9-.69,2.74-1.41,5.58-4.06,5.58-1.7,0-2.2-1.52-2.78-3.29-.2-.6-.4-1.22-.66-1.78l-.18-.4-.12.43c-.36,1.36-.92,2.29-1.52,3.27-.35.57-.7,1.15-1.05,1.87-.08.16-.16.33-.24.49-.51,1.07-.95,2-2.06,2-1.56,0-1.84-1.47-2.18-3.17-.17-.85-.34-1.72-.69-2.48l-.21-.45-.1.49c-.11.59-.21,1.12-.3,1.62-.32,1.74-.57,3.12-1.13,5.11v.04s0,.04,0,.04c.28,1.54.55,2.83.81,4.07.43,2.06.85,4.01,1.16,6.69.11.92.08,1.65.04,2.4-.03.6-.06,1.2-.02,1.89-6.58-3.39-10.05-9.61-12.59-15.27v-.02s-.15.07-.15.07l-.15.06v.02c.68,1.52-.28,3.02-1.48,3.95-.33-1.18-.83-2.02-1.34-2.9-.4-.69-.82-1.41-1.19-2.33l-.31.08c.56,4.36,1.43,7.51,2.33,10.84.55,2.04,1.13,4.14,1.69,6.67.34,1.54.42,2.89.5,4.18.14,2.14.27,4.16,1.52,6.48,2.26,4.22,3.29,7.14,4.73,11.19.22.64.46,1.29.71,2.01.43,1.22.9,2.21,1.35,3.19.76,1.63,1.48,3.17,1.8,5.38l.31.02c.52-2.72,1.42-4.24,2.77-6.52l.32-.52h.95c2.96,7.2,3.59,11.96,3.96,20.5l.03.56.28-.49c.61-1.09,1.17-1.8,1.81-2.62.31-.39.63-.81.97-1.27,2.13.88,2.81,2.68,3.67,4.95l.28.75.15-.39c.25-.64.43-1.35.6-2.02.48-1.93.9-3.6,2.69-3.6,1.46,0,1.87,1.27,2.34,2.75.24.81.52,1.63.97,2.32l.15.22.13-.22c.19-.39.37-.75.54-1.11.77-1.56,1.37-2.79,3-3.65.28.36.54.67.79.97.77.9,1.41,1.67,1.99,2.9l.3-.06c.24-3.86.86-6.54,1.57-9.63.32-1.44.66-2.94.99-4.68.11-.6.17-1.26.21-1.87.15-1.93.28-3.75,1.93-3.75,1.33,0,1.76,1.12,2.23,2.44.22.6.47,1.24.81,1.8l.17.28.49-1.26c7.27-18.2,11.66-29.18,14.26-49.02l-.3-.06c-.66,2.43-1.16,4.37-3.2,5.81-.07-.26-.13-.52-.19-.75-.32-1.2-.56-2.14-1.2-3.38l-.17-.34-.11.37c-.97,2.92-2.32,4.66-3.92,6.67-.67.84-1.37,1.71-2.1,2.75l-.09.15c-2.25,3.24-3.62,5.23-6.73,7.36.11-.77.24-1.5.36-2.21.75-4.63,1.31-7.98,1.31-13.25,0-2.57-.19-4.19-1.16-6.37l-.24-.52-.07.71c-.28,2.3-.64,5.17-2.85,5.17-.94,0-1.24-.83-1.61-1.8-.11-.33-.24-.67-.39-.98-.39-.8-.77-1.44-1.14-2.05-.51-.86-.97-1.68-1.44-2.81l-.17-.45-.13.47c-.56,2.25-1.27,5.05-3.71,5.05-1.86,0-2.34-1.6-2.92-3.46-.3-.95-.6-1.93-1.11-2.78l-.19-.32Z"/>
      </g>
      <path d="m201.4,194.72l-.11-.3-14.88,4.29-14.88-4.29-.1.3c1.57.61,2.51,1.46,3.6,2.45.55.5,1.12,1.01,1.82,1.55.5.37.99.64,1.47.9.91.49,1.7.92,2.22,1.92.52.99.5,1.86.48,2.86-.01.61-.03,1.25.08,1.97.34,2.13.68,3.82,1,5.45.33,1.63.66,3.32,1,5.46.08.48.15.95.22,1.4.41,2.8.77,5.23,3.29,7.02l.15.11.08-.18c2.79-6.07,3.42-9.97,4.47-16.42l.14-.84c.17-1.04.19-1.94.21-2.81.03-1.32.06-2.56.64-4.05.32-.83.98-1.13,1.75-1.47.45-.2.92-.41,1.36-.75.76-.59,1.39-1.15,1.99-1.69,1.22-1.09,2.27-2.03,4.01-2.88"/>
      <path class="cls-5" d="m180.23,55.05l.57.35c2.51,1.53,26.58,10.07,30.59,11.49l-30.08,6.69.78.14c3.13.57,16.64,4.7,19.45,5.75l-19.14,7.32.06.31c8.66-.3,19.94-.44,22.51-.37-1.97.93-6.33,2.1-10.94,3.33-6.15,1.64-12.48,3.34-14.32,4.77,0,0,0,0,0,0l-.08.05v.41l.22-.18c1.22.19,19.94,7.23,23.78,8.94l-3.49,5.07c-.73-.43-4.4-2.43-10.36-3.2-6.1-.79-15.91-.4-28.03,5.9-1.99-1.97-4.26-3.68-6.47-5.33-1.29-.97-2.63-1.98-3.9-3.03-.07-.06-.15-.11-.22-.17-.22-.18-.41-.37-.6-.57-.36-.38-.68-.78-.99-1.18-.46-.6-.91-1.17-1.48-1.6-.51-.39-1.11-.66-1.9-.71-3.9-.22-7.03-.03-10.06.15-3.02.18-6.14.36-10.02.14-.94-.06-1.59-.46-2.15-1.03-.33-.33-.63-.71-.94-1.12-.45-.58-.92-1.17-1.53-1.69-.06-.05-.11-.1-.16-.14-.66-.53-1.41-.9-2.14-1.26-.94-.46-1.78-.88-2.26-1.57-.26-.37-.41-.8-.41-1.36,0-.95.41-1.56.9-2.27.29-.42.58-.86.81-1.4.23-.55.34-1.08.45-1.59.2-.94.37-1.76,1.22-2.36,1.35-.95,2.63-1.02,4.1-1.09.86-.04,1.75-.09,2.73-.31l.24-.06-.15-.2c-.35-.44-.57-.99-.79-1.51-.26-.62-.51-1.22-.95-1.6-.28-.24-.63-.4-1.11-.4-.96,0-1.63.29-2.34.6-.47.21-.96.42-1.56.55-.37.08-.73.1-1.08.11-.81.04-1.58.08-2.17.8-.32.39-.59.77-.85,1.15-1.34,1.99-1.86,3.89-2.45,6.03-.14.52-.28,1.04-.44,1.58-.23.8-.5,1.63-.85,2.51-.01.04-.03.07-.04.11l-.04.09,10.1,10.25c.07.12.15.22.23.31.69.8,1.81.73,2.9.66.34-.02.68-.04,1.02-.04h17.45l18.03,15.74.07.06.35-.12,17.21-5.93h11.14l4.4,1.49,14.32,4.84.06-.06c2.08-1.88,3.8-3.82,5.45-5.69,4.1-4.64,7.66-8.65,14.54-9.19,2.44-.18,4.4-.17,6.3-.15,1.84.01,3.71.03,6.05-.13,1.37-.09,2.57-.2,3.69-.32.28-.03.56-.06.82-.09,2.17-.23,4.2-.45,6.95-.45.06,0,.11.04.21.11l.06.05c-.19.15-.37.3-.54.44-.15.11-.28.23-.41.34-1.35,1.08-2.32,1.86-4.09,2.91l-.15.09.09.14c.47.65.92,1.25,1.37,1.84,2.08,2.72,3.88,5.08,3.88,9.14,0,6.8-2.14,11.52-6.93,15.33-.39.3-.73.62-1.07.93-.96.89-1.8,1.66-3.19,1.66-.54,0-.97-.55-1.16-1.1-.15-.48-.19-1.15.26-1.49,9.41-7.06,8.3-14.91,7.38-17.96-.71-2.39-1.93-4.1-2.59-4.14-2.89-.18-4.95.66-6.47,2.65-.43.59-.37,1.21-.32,1.85.02.35.06.71,0,1.09-.21,1.55-.39,2.77-.56,3.99-.19,1.24-.36,2.47-.58,4.04-.06.37-.06.72-.07,1.06-.02.9-.06,1.67-.73,2.28-1.12,1.02-2.34,1-3.77.97-.79-.01-1.59-.03-2.47.14-1.16.22-2.14.53-3.05.83-1.44.46-2.79.89-4.67.89-1.24,0-2.14-.41-3.09-.85-.94-.43-1.91-.88-3.22-.88-2.34,0-3.75,2.74-4.39,4.38l-.06.12.11.07c5.83,3.56,10.16,8.6,12.22,11.29,2.9,3.81,4.87,7.53,4.87,9.25v22.54h.69c3.02,0,5.02,0,7.87,1.08-.34.74-2.23,4.29-8.98,8.4-1.59.96-5.64,15.39-10.01,31.37-.84,3.05-1.57,5.72-2.1,7.57-.17.6-2.7,10.16-3.64,13.72-.21.81-.34,1.31-.34,1.35l-.43,5.23.36-.58.17-.28c.94-1.59,1.87-3.39,2.79-5.15,2.29-4.4,4.65-8.94,6.62-9.31.51-.09,1.69.36,2.38.62.67.26.77.3.88.19l.06-.07-.02-.09c-.45-1.11.77-9.63,3.43-11.26.84-.51,1.76-.21,2.72.88l.07.07.07-.02q.13-.02.69-1.39c1.2-2.94,4.4-10.72,6.47-10.93.3-.02.58.15.82.51l.07.09.11-.02c.17-.04.19-.04.96-4.54.34-2.01.67-4.07.92-5.17.43-1.95,2.38-3.37,4.65-3.37.15,0,.15-.02.21-.58.92-9.03,2.9-12.36,4.4-13.56.71-.57,1.5-.82,2.34-.72l.17.02v-.17c.04-.88.06-1.63.07-2.34.04-1.38.06-2.58.22-4.25.39-4.07,1.67-6.09,3.86-6.17h.15v-.16c0-1.74-.22-3.09-.43-4.4-.21-1.3-.43-2.64-.43-4.35,0-2.14,2.12-3.43,4.14-3.43h.19l-2.6-19.95c.49-1.85,1.63-2.81,2.94-3.92.52-.44,1.07-.89,1.59-1.44,1.42-1.42,2.53-2.6,3.6-3.74,1.07-1.14,2.17-2.31,3.58-3.73l.32-.32-.45.05c-2.83.3-6.56.69-9.09.93-.82.08-1.54.14-2.02.18-.15.01-.28.02-.39.03l.32-.22,8.85-6.16h-10.85l6.05-12.04-.32.06c-.36.07-.67.14-.99.23-.99.26-1.84.58-2.68.89-1.14.43-2.23.84-3.6,1.07-.17.02-.32.05-.47.07l4.89-10.36-.32.06c-.77.15-1.42.3-2.06.45-1.63.37-3.04.7-5.08.7-.07,0-.13-.04-.21-.11-.06-.04-.11-.09-.17-.12.37-1.08.84-1.97,1.29-2.83.79-1.48,1.54-2.88,1.54-4.96s-.75-3.64-1.56-5.2c-.47-.91-.94-1.86-1.33-3.03-.17-.52-.3-1.04-.43-1.54-.43-1.69-.81-3.14-2.51-4-.81-.4-1.56-.77-2.27-1.12-2.87-1.41-5.12-2.52-8.34-4.33-.52-.29-1.16-.42-1.76-.54-1.16-.24-1.89-.44-1.89-1.33,0-1.41-1.26-1.86-2.47-2.3-.56-.2-1.14-.41-1.61-.7-1.31-.82-2.32-1.56-3.3-2.29-.97-.73-1.99-1.48-3.32-2.31-.47-.29-.94-.53-1.41-.78-1.5-.78-2.79-1.45-3.11-3.13l-.02-.12-33.04-2.59-7.36-.58Zm105.33,17.11c-1.74,0-2.74.94-3.8,1.94-.56.52-1.14,1.06-1.87,1.52-1.18.75-2.19,1.4-3.17,2.02-2.21,1.42-4.12,2.64-6.88,4.3-5.58,3.32-9.99,5.95-11.77,12.7l-.09.38,9.14-5.54c.28.91.21,1.77.13,2.59-.09,1.06-.21,2.16.52,3.28l.11.18,6.2-7.04c.02,2.8-1.99,7.52-2.02,7.57l-.22.52,8.83-6.25-5.15,9.71,6.54-4.27-10.4,17.22.54-.33c.51-.29.96-.57,1.37-.82,2.38-1.44,3.73-2.26,6.71-3.14l-6.63,16.44.37-.18c2.98-1.48,4.39-3.43,6.03-5.69.62-.86,1.27-1.74,2.04-2.68,1.07-1.28,2.17-2.19,3.22-3.08,1.61-1.35,3.15-2.64,4.27-4.99,1.31-2.75,1.44-5.08,1.59-7.54.07-1.33.17-2.7.43-4.27.24-1.56.6-2.83.96-4.07.54-1.89,1.05-3.67,1.05-6.15s-.94-4.2-1.93-5.98c-.52-.95-1.07-1.93-1.54-3.11-.07-.2-.15-.4-.22-.6-.88-2.3-1.82-4.67-4.37-4.67h0Zm-179.44.11h-.07c-1.5.04-2.77.05-3.99.06-2.34.02-4.35.04-7.2.23-.25.02-.49.03-.73.04-2.44.14-4.55.27-5.99,2.32-.88,1.24-1.39,2.37-1.87,3.46-.48,1.09-.99,2.21-1.86,3.42-1.35,1.86-2.42,3.33-3.49,4.8-1.04,1.43-2.08,2.87-3.39,4.67-.34.47-.72.86-1.09,1.23-.78.79-1.52,1.54-1.52,2.88,0,2.87.4,4.87.85,7.18.19.98.4,2,.59,3.17.19,1.14.12,2.16.05,3.15-.11,1.58-.21,3.07.84,4.66.87,1.3,2.08,1.64,3.36,1.99.8.22,1.62.45,2.43.93,4.53,2.71,8.29,4.54,11.92,6.32,3.63,1.77,7.38,3.6,11.89,6.31l.2-.25-12.38-13.22h.46l11.16,5.44.19-.25-12.6-13.44,11.6,1.66.08-.31c-4.47-1.78-7.6-3.52-10.91-5.37-2-1.11-4.06-2.26-6.59-3.52-1.15-.57-2.24-.94-3.31-1.3-2.15-.73-4.01-1.36-5.45-3.41,3.12-2.83,4.54-5.52,6.19-8.63.85-1.6,1.73-3.26,2.92-5.08.45-.7.72-1.4.97-2.07.42-1.1.77-2.05,1.85-2.76.71-.46,1.37-.39,2.13-.3.48.05.97.11,1.53.04.6-.08,1.14-.16,1.65-.23,1.76-.25,3.15-.44,5.19-.64l9.62,1.5-.29-.33c-.88-.99-1.71-1.62-2.51-2.23h0c-.76-.58-1.54-1.17-2.37-2.07l-.05-.05Zm96.67,61.21c-3.22,0-4.24,3.34-5.45,6.31-.17.39-.79,1.06-1.69,1.89-2.49,2.33-7.05,5.91-8.94,8.16v7.46h3.73c12.67,0,19.21,7.13,28.13,16.07-.6-2.98,0-4.95-1.14-7.75-1.48-3.52-5.1-3.66-6.6-7.17l7.46,4.3c-1.95-3.69-4.03-5.31-7.18-8.03,3.37-.32,5.42,1.07,8.04,3.15-2.44-4.59-5.53-6.2-10.04-8.89,3.65-.36,5.81.68,9.18,2.01-3.02-3.01-5.57-3.95-9.48-5.74,1.59-.61,2.59-1.14,4.31-1.14,2.77,0,3.97,1.11,6.63,1.79-.02-.04-.06-.08-.07-.11-2.57-3.72-12.87-12.29-16.88-12.29h0Zm-36.18.31c-3.65,0-8.38,4.77-11.85,8.43-.96,1.01-1.82,1.94-2.53,2.65,0,0,1.57-1.34,4.33-1.34,1.72,0,2.44,1.43,4.02,2.04-4.02,1.86-6.64,2.91-9.76,6.03,3.12-1.87,5.27-2.58,8.9-2.58.25,0,.36.28.58.28-4.52,2.69-7.61,4.31-10.05,8.9,2.48-1.97,4.27-3.44,7.46-3.44.25,0,.36.28.57.28-3.26,2.8-5.1,4.74-7.46,8.32l7.61-4.59c-1,3.62-4.84,3.77-6.46,7.18-1.29,2.73-.61,4.77-1.15,7.75,8.93-8.93,15.46-16.07,28.12-16.07h3.73v-6.89c0-1.81-4.1-4.56-8.22-9.03-.04-.04-.07-.08-.1-.12-2.85-3.1-3.47-7.79-7.74-7.79h0Z"/>
      <path class="cls-4" d="m137.88,113.76c-.05,1.72-.43,2.62.4,4.26,1.25,2.44,3.84,2.58,6.6,2.58.9,0,1.47-.32,2.3-.58-.76-.57-1.22-.93-2.01-1.44.32-.21.42-.55.72-.86.02-.02,1.4,1.08,2.72,1.44.58.16.98-.43,1.33-1l-12.06-4.42Zm93.58.14l-12.42,5.23c1.26,1.55,2.81,2.43,4.91,2.43,1.59,0,2.59-.22,4.03-.86-.75-.57-1.22-.93-2.01-1.43,0,0,.69-.9.71-.86.06.09,1.26,1.14,2.72,1.43,1.82.36,1.97-4.18,2.06-5.93Z"/>
      <path class="cls-1" d="m133.69,112c1,2.58.64,4.45,2.01,6.88,1.87,3.3,4.8,4.59,8.61,4.59s6.34-1.47,8.89-4.29c0,0,0,0,0-.01-.01,0-.03,0-.04-.01h0c-1.19-.47-1.7-1.02-2.91-1.48-.1.15-.21.32-.32.5-.35.56-.75,1.15-1.33,1-1.32-.36-2.7-1.46-2.72-1.44-.3.31-.39.65-.72.86.79.5,1.26.86,2.01,1.44-.83.25-1.4.58-2.3.58-2.76,0-5.34-.14-6.6-2.58-.84-1.64-.46-2.54-.4-4.26,0-.12,0-.23,0-.37,0-.04-4.2-1.4-4.2-1.4h0Zm101.39.31s-3.56,1.03-3.58,1.09c0,.12-.02.3-.04.51-.09,1.76-.24,6.29-2.06,5.93-1.46-.29-2.66-1.35-2.72-1.43-.02-.04-.71.86-.71.86.79.5,1.26.86,2.01,1.43-1.44.65-2.44.86-4.03.86-2.1,0-3.65-.88-4.91-2.43-.11-.13-.22-.25-.32-.39-.02-.02-.02-.03-.04-.05-.22.13-.45.25-.66.36-.52.28-.99.54-1.48.82-.3.17-.6.34-.92.54.97.64,1.82,1.26,2.66,1.82,1.86,1.26,3.6,2.2,6.24,2.2,6.35,0,9.65-5.85,10.55-12.13h0Zm-49.7,10.36c-5.31,0-8.04,2.22-13.2,3.44,1.33,1.33,1.83,3.16,3.73,3.16h18.37c1.89,0,1.57-1.47,2.89-2.8-4.48-2.37-6.69-3.81-11.79-3.81h0Zm4.71,46.2c-1.89,0-3.58,1.4-3.58,3.3,0,3.44,2.19,4.99,3.45,8.18,1.26-3.19,3.43-4.74,3.43-8.18,0-1.83-1.46-3.3-3.3-3.3h0Zm-7.84.84c-1.58,0-3.3.72-3.3,2.29v4.02c1.86,1.44,2.58,2.9,3.16,5.16,1.26-3.19,3.45-4.74,3.45-8.18,0-1.83-1.47-3.3-3.3-3.3h0Zm15.78.28c-1.01,0-1.69.29-2.44.86v4.59c0,3.44,2.87,4.73,3.73,8.03.51-2.54,1.07-4.02,2.29-6.31v-6.03c-1.42-.36-2.12-1.14-3.58-1.14h0Zm-24.01.03c-1.47,0-2.26.58-3.59,1.15v3.16c0,3.59,1.47,5.42,2.3,8.9,1.22-3.08,3.73-4.41,3.73-7.75v-5.42c-.93.14-1.47-.04-2.44-.04h0Zm-7.61,1.72c-4.27,0-8.03,3.19-8.03,7.46,0,8.37,4.16,13.05,10.04,18.93l-1.72-12.48c.29-3.62,2.01-5.41,2.01-9.03v-3.73c-.75-.61-1.29-1.14-2.3-1.14h0Zm38.92.26c-1.18,0-2.29.82-2.29,2.01v2.58c0,3.69,2.01,5.63,2.01,9.32,0,4.91-.94,7.61-1.72,12.48,5.38-6.39,10.04-10.59,10.04-18.94,0-4.27-3.77-7.46-8.04-7.46h0Zm-33.57,57.67c-2.58,7.76-3.73,12.39-3.73,20.52,0,2.81.92,6.18,3.73,6.18h2.58c.79,0,1.32-.51,1.72-1.16l-4.3-25.54Zm30.12,0l-4.29,26.12c.64.24.99.58,1.72.58h3.45c1.67-2.02,2.87-3.52,2.87-6.18,0-8.13-.3-13.12-3.75-20.52h0Zm-14.92,16.36c-.71,2.7-2.87,3.8-2.87,6.6v4.57c1.68-.04,2.66.32,4.31.02,1.93-.32,1.41-2.9,1.44-4.87.06-2.68-1.91-3.84-2.89-6.32Zm-7.17.3c-.82,1.82-2.58,2.53-2.58,4.59,0,2.51.04,4.25,1.44,6.3h4.3v-4.87c0-2.66-1.72-3.84-3.16-6.02h0Zm14.07,0c-1.01,2.14-2.87,3.04-2.87,5.43v5.43c.86-.11,1.39.02,2.29.02,2.74,0,3.17-3.58,3.17-6.3,0-2.06-1.48-2.9-2.59-4.59h0Z"/>
    </g>
  </g>
</svg>