<?xml version="1.0" encoding="UTF-8"?>
<svg id="Layer_2" data-name="Layer 2" xmlns="http://www.w3.org/2000/svg" viewBox="0 0 165.92 165.93">
  <defs>
    <style>
      .cls-1 {
        fill: #fff;
      }

      .cls-2 {
        fill: #a5a5a5;
      }

      .cls-3 {
        fill: #f5f5f5;
      }

      .cls-4 {
        fill: #7c6d68;
      }

      .cls-5 {
        fill: #ffe5ba;
      }

      .cls-6 {
        fill: #afafaf;
      }

      .cls-7 {
        fill: #5b4842;
      }

      .cls-8 {
        fill: #ededed;
      }
    </style>
  </defs>
  <g id="_Ñëîé_1" data-name="Ñëîé 1">
    <g>
      <circle class="cls-3" cx="82.96" cy="82.96" r="82.96"/>
      <path class="cls-2" d="m103.12,31.25s-37.63,3.44-48.06-8.44c0,0,38.85-21.11,55.69,7.18,0,0,13.17,3.88,10.51,20.12,0,0-2.92-4.11-7.17-3.62-4.25.49-10.98-15.25-10.98-15.25Z"/>
      <path class="cls-5" d="m116.93,69.49c0,16.76-14.52,31.29-34.09,31.29s-35.44-13.58-35.44-30.34c0-43.85,15.19-44.88,34.77-44.88s34.77,4.54,34.77,43.94Z"/>
      <path class="cls-5" d="m54.11,77.49c0,2.68-2.17,4.86-4.85,4.86s-4.85-2.18-4.85-4.86,2.17-4.85,4.85-4.85,4.85,2.17,4.85,4.85Z"/>
      <path class="cls-5" d="m111.56,77.49c0,2.68,2.17,4.86,4.85,4.86s4.86-2.18,4.86-4.86-2.17-4.85-4.86-4.85-4.85,2.17-4.85,4.85Z"/>
      <rect class="cls-5" x="76.87" y="99.41" width="10.58" height="15.46"/>
      <path class="cls-2" d="m84.54,20.79c-25.73-2.87-32.55,6.9-34.27,17.6,0,0,3.81,8.67,32.19,8.67s30.84-8.67,30.84-8.67c-5.58-13.91-20.09-16.63-28.75-17.6Z"/>
      <path class="cls-2" d="m110.73,30.78s-26.97-20.06-62.87-5.45c0,0,18.95,9.38,24.43,8.35,5.48-1.04,39.61-2.93,38.44-2.89Z"/>
      <path class="cls-2" d="m116.55,72.95s7.56-30.27-3.25-34.55c-1.84-.73-5.56,4.37-5.56,4.37,0,0-.42,12.02,8.81,30.18Z"/>
      <path class="cls-2" d="m47.58,72.95s-7.69-30.81,3.12-35.09c1.85-.73,5.69,4.91,5.69,4.91,0,0,.42,12.02-8.81,30.18Z"/>
      <path class="cls-2" d="m55.15,41.12s-6.88-1.56-10.22-8.78c0,0,4.71-2.74,15.14-6.79,6.16-2.4-4.91,15.56-4.91,15.56Z"/>
      <path class="cls-6" d="m110.32,39.19c-3.62,4.38-48.39,10.55-64.27-5.97,0,0,36.91,8.87,59.24,2.46,4.56-1.31,7.29.79,5.04,3.51Z"/>
      <path class="cls-7" d="m131.15,121.22c-.96-.93-21-7.49-21-7.49-4.49,4.54-28.44,1.7-28.44,1.7v.11c.71-.03,1.13-.06,1.13-.06v50.26h0c21.11,0,40.39-7.81,55.14-20.68-1.03-10.38-3-20.17-6.83-23.84Z"/>
      <path class="cls-7" d="m34.52,121.22c.96-.93,21-7.49,21-7.49,4.49,4.54,28.44,1.7,28.44,1.7v.11c-.71-.03-1.13-.06-1.13-.06v50.26h0c-21.11,0-40.39-7.81-55.14-20.68,1.03-10.38,3.01-20.17,6.83-23.84Z"/>
      <path class="cls-8" d="m82.84,143.64s-9.59.46-10.25,0c-.65-.46-3.67-15.26-3.6-17.56.08-2.29.7-9.98,3.6-9.98s24.54-5.74,27.49-1.15c2.95,4.59-7.14,34.54-17.24,28.69Z"/>
      <path class="cls-7" d="m82.84,113.73v11.47h-3.06s-2.29-3.52-3.82-8.11c0,0,3.14-3.06,6.88-3.37Z"/>
      <path class="cls-7" d="m82.84,113.73v11.47h3.06s2.3-3.52,3.83-8.11c0,0-3.14-3.06-6.88-3.37Z"/>
      <path class="cls-1" d="m76.87,105.18l-14.52,6,11.09,12.95,9.41-10.4s-5.79-2.19-5.97-8.55Z"/>
      <path class="cls-1" d="m87.45,105.29l15.88,5.89-11.16,12.95-9.33-10.4s4.56-1.97,4.61-8.44Z"/>
      <g>
        <path class="cls-7" d="m79.78,125.2c-3.2,9.33-3.82,24.86-3.82,24.86l6.88,12.92v-37.78h-3.06Z"/>
        <path class="cls-7" d="m85.9,125.2h-3.06v37.78l8.06-12.42s-.39-13.9-5-25.36Z"/>
      </g>
      <polygon class="cls-4" points="97.86 109.15 110.15 113.73 103.33 124.13 107.64 130.33 82.84 162.99 97.86 109.15"/>
      <polygon class="cls-4" points="67.17 109.18 54.88 113.77 61.7 124.17 57.39 130.36 82.19 163.02 67.17 109.18"/>
    </g>
  </g>
</svg>